<?xml version="1.0" encoding="utf-8"?>
<!-- Generator: Adobe Illustrator 27.9.0, SVG Export Plug-In . SVG Version: 6.00 Build 0)  -->
<svg version="1.1" id="Layer_1" xmlns="http://www.w3.org/2000/svg" xmlns:xlink="http://www.w3.org/1999/xlink" x="0px" y="0px"
	 viewBox="0 0 2500 2500" style="enable-background:new 0 0 2500 2500;" xml:space="preserve">
<style type="text/css">
	.st0{fill-rule:evenodd;clip-rule:evenodd;fill:#8B274C;}
	.st1{fill-rule:evenodd;clip-rule:evenodd;fill:#ECB73A;}
</style>
<g>
	<path class="st0" d="M2195.1,1628.1c-29.1-31.1-27.5-64.1-27.5-64.1V819.4h-283v595.5c-3.5,56.4-58.8,70.8-89.4,69.9
		c-43.9-1.4-69.3-25.9-69.3-68.1l-0.1-597h-275.6l0-0.2c-64.5,0-115.1,0.2-194.2,0.2c-150.8,0-293.2,23.1-341.2,148.2l-28.5-110.9
		c-7-21.8-30.8-37.5-54.3-37.5h-37l-368.8,0h-87.1c-7.1,0-9.6,2.2-5.9,7.2c0,0,13.3,12.8,37.6,40.4c33.7,38.3,20.4,89.6,20.4,89.6
		l-180.3,719.4h262.6l37.9-158h253.4l39.5,158.1H1150c141.9,0,257.3-14.4,314.4-102.8c42.6,80.5,134.2,118.4,295.7,104.5
		c56.3-4.8,111.5-31.2,135.3-72.9l10.9,34.7c9.5,20.9,28.7,36.4,56.1,36.4h264.3c7,0,9.6-2.1,5.9-7.1
		C2232.6,1668.9,2218.5,1653.2,2195.1,1628.1L2195.1,1628.1z M551.5,1363.2l87.5-351.6l88,351.6H551.5z M2200.8,871.5h7.5V826h16.2
		v-6.6h-39.9v6.6h16.2V871.5z M2276.8,819.4l-16.1,43.3l-16.3-43.3H2232v52.2h7.5v-45.1h0.2l17.2,45.1h7.3l17.2-45.1h0.2v45.1h7.5
		v-52.2H2276.8L2276.8,819.4z"/>
	<path class="st1" d="M904.3,1027.6l0.2-1.8c1-7.6,2.4-15.1,4-22.5l0.1-0.7l-47.3-28.6c-2.3-1.5-5.3-1.2-7.3,0.7
		c-0.9,0.9-1.3,2.2-1.2,3.5c0.1,1.3,0.8,2.5,1.8,3.3L904.3,1027.6L904.3,1027.6z M903.3,1104.8l-0.2-2c-1.2-11-1.7-22.1-1.5-33.2
		l-88.5-35.4c-2.4-1.1-5.7-0.3-7.1,1.9c-0.7,1.1-0.9,2.4-0.6,3.6c0.4,1.3,1.2,2.4,2.4,3L903.3,1104.8L903.3,1104.8z M773.6,1110.1
		l149.8,65.5l-1.1-2.3c-6.4-13.6-11.3-27.8-14.6-42.5l-0.1-0.6l-130.4-29.1c-2.6-0.7-5.5,0.5-6.5,2.9c-0.5,1.2-0.5,2.5,0.1,3.6
		C771.3,1108.7,772.3,1109.7,773.6,1110.1L773.6,1110.1z M1147.4,1324.5c-82.1-28.2-175.2-60.2-219.7-140.7l-0.2-0.5L755,1172.5
		c-2.7-0.3-5.5,1.4-6,4c-0.2,1.2,0,2.5,0.8,3.5c0.8,1.1,2.1,1.9,3.5,2.2l172.8,44.4c0.5,0.1,1.2,0.3,1.4,0.7
		c0.2,0.3,0.3,0.6,0.2,0.9c-0.1,0.9-0.9,1.5-1.9,1.4l-178.9,16.8c-2.7,0.1-5.2,2.3-5.2,4.9c0,1.2,0.5,2.4,1.4,3.2
		c0.9,1,2.4,1.6,3.8,1.6l178.7,16.8c0.9,0,1.7,0.5,1.8,1.3c0.1,0.4-0.1,0.9-0.4,1.2c-0.3,0.3-0.6,0.4-1,0.5l-173.2,44.4
		c-1.3,0.3-2.4,1-3.1,2.1c-0.7,1-1,2.3-0.8,3.5c0.5,2.5,3.4,4.1,6,3.9l179.1-11.3c1-0.2,1.9,0.2,2.1,1c0.1,0.4,0.1,0.9-0.2,1.3
		c-0.2,0.3-0.5,0.6-0.9,0.7l-161.5,70.5c-1.3,0.5-2.4,1.5-3,2.8c-0.5,1.1-0.5,2.4-0.1,3.5c1,2.4,4.1,3.5,6.8,3l174-39
		c1.5-0.3,2.1,0.1,2.5,0.9c0.2,0.3,0.2,0.7,0.1,1c-0.2,0.4-0.5,0.8-1,1l-145.1,94.4c-1.2,0.7-2.2,1.8-2.5,3.2
		c-0.3,1.2-0.1,2.5,0.6,3.6c1.4,2.2,4.9,3,7.2,1.8l163.7-65.4c0.8-0.5,1.9-0.3,2.4,0.4c0.3,0.4,0.4,0.9,0.4,1.4
		c0,0.3-0.2,0.6-0.5,0.8l-124.6,115.5c-1,0.9-1.7,2.2-1.9,3.6c-0.1,1.3,0.4,2.4,1.2,3.4c1.8,1.9,5.4,2.2,7.5,0.6l148.5-89.9
		c0.7-0.6,1.8-0.6,2.5,0c0.8,0.7,0.7,1.2,0.7,1.3c0,0.5-0.4,1-0.4,1L912,1574.3c-0.7,0.9-1.1,2-0.9,3.2c0.1,1.3,0.9,2.5,1.9,3.3
		c2.1,1.6,5.5,1.2,7.4-0.5l128.8-111.6c0.6-0.7,1.8-1,2.5-0.5c0.6,0.4,0.9,0.9,0.9,1.4c0,0.4-0.1,0.7-0.3,1.1l-72.9,146.5
		c-0.6,1.1-0.8,2.4-0.5,3.6c0.4,1.3,1.3,2.4,2.5,3.1c2.4,1.3,5.8,0.4,7.2-1.7c0,0,106-130.9,106.2-130.8c21.2,9.8,42.1,16,58.7,17.6
		c50.2,4.8,97.1-6.4,122.5-29.4c13.2-12,19.8-26.3,19.8-42.6C1295.9,1375.5,1227.1,1351.9,1147.4,1324.5L1147.4,1324.5z
		 M1490.7,1521.2l-0.6,1.8c-2.3,7.3-5,14.6-8,21.6l-0.3,0.7l40.7,35.4c2.1,1.8,5.1,1.9,7.3,0.3c1.1-0.8,1.8-2,1.9-3.4
		c0.1-1.2-0.3-2.5-1.1-3.4L1490.7,1521.2L1490.7,1521.2z M1504.1,1442.8l-0.2,2c-0.7,11.3-2,22.6-3.7,33.8l-0.1,0.6l81.6,49.4
		c2.1,1.6,5.4,1.1,7.2-0.8c0.9-0.9,1.4-2.2,1.2-3.5c-0.1-1.2-0.7-2.4-1.6-3.2L1504.1,1442.8L1504.1,1442.8z M1502.2,1373.3l0.3,2.1
		c1.7,11.6,2.6,23.8,2.6,36.2l-0.1,6.7l125,50.1c2.4,1.1,5.6,0.3,7-1.9c0.7-1.1,0.9-2.4,0.6-3.6c-0.4-1.3-1.2-2.3-2.3-3
		L1502.2,1373.3L1502.2,1373.3z M1699.9,1248.1c-1-1-2.3-1.5-3.6-1.6l-178.9-16.8c-0.9,0.1-1.6-0.5-1.7-1.3c0-0.4,0.1-0.9,0.4-1.2
		c0.3-0.3,0.6-0.5,1-0.5l172.8-44.3c1.4-0.3,2.6-1,3.5-2.2c0.7-1,1-2.3,0.8-3.5c-0.5-2.5-3.2-4.1-6.1-3.9l-179.3,11.3
		c-0.9,0.2-1.8-0.2-2-1.1c-0.1-0.4-0.1-0.9,0.2-1.2c0.2-0.3,0.5-0.5,0.8-0.6l161.7-70.6c1.3-0.4,2.4-1.4,2.9-2.7
		c0.5-1.1,0.6-2.4,0.1-3.6c-1-2.4-4.1-3.4-6.8-2.8l-174.5,38.9c-0.9,0.4-2.1,0.2-2.5-0.5c-0.2-0.4-0.2-0.8-0.1-1.2
		c0.2-0.4,0.5-0.7,0.8-0.9l145.7-94.7c1.2-0.7,2-1.8,2.4-3.1c0.3-1.2,0.1-2.5-0.6-3.6c-1.4-2.2-4.6-2.9-7.1-1.8l-164.5,65.7
		c-0.8,0.5-1.8,0.4-2.3-0.3c-0.3-0.4-0.4-0.8-0.4-1.3c0.1-0.3,0.3-0.6,0.6-0.8l125.2-116.1c1-0.9,1.6-2,1.8-3.3
		c0.1-1.3-0.4-2.6-1.2-3.5c-1.8-1.9-4.9-2.4-7-0.8l-149.7,90.5c-0.7,0.6-1.8,0.6-2.5,0c-0.3-0.3-0.5-0.6-0.5-0.9s0.2-0.8,0.4-1.1
		l100.7-133.7c0.8-1,1.2-2.2,1.2-3.5c-0.1-1.3-0.8-2.6-1.9-3.4c-2.2-1.6-5.7-1.3-7.4,0.5l-129.4,112.1c-0.6,0.7-1.6,1.1-2.4,0.6
		c-0.4-0.3-0.7-0.5-0.8-1c0-0.4,0-0.7,0.2-1.1l73.4-147.6c0.6-1.1,0.8-2.4,0.5-3.6c-0.4-1.3-1.3-2.4-2.5-3.1
		c-2.4-1.2-5.7-0.5-7.1,1.6l-108.1,132.9c-29.9-14.6-79.9-23.2-103.1-23.2c-0.4,0-1.1,0-2-0.1c-47.5-1.2-82.9,8.2-102.2,27.1
		c-11.2,10.9-16.9,25-16.9,41.9c0,23.2,13.1,42.2,41.2,59.8c25.1,15.8,60,28.9,97,42.9c48.2,18.2,102.9,38.8,147.6,69.7
		c51.4,35.4,81.6,78.7,92.5,132.4l0.1,0.6l165.5,37.1c2.5,0.7,5.2-0.6,6.2-3c0.5-1.2,0.4-2.5-0.1-3.6c-0.6-1.2-1.6-2.1-2.9-2.5
		l-161.4-70.6c-0.4-0.1-0.7-0.4-0.9-0.7c-0.2-0.4-0.3-0.9-0.2-1.3c0.3-0.8,1.2-1.3,2.1-1l179.2,11.3c2.8,0.2,5.4-1.5,5.9-4
		c0.2-1.2,0-2.5-0.8-3.5c-0.8-1.1-2-1.9-3.3-2.1l-172.7-44.4c-0.5,0-0.9-0.2-1.2-0.6c-0.3-0.3-0.4-0.7-0.3-1.1
		c0.1-0.9,0.9-1.5,1.9-1.5l178.7-16.8c1.4-0.1,2.8-0.6,3.7-1.6c0.9-0.9,1.4-2.1,1.4-3.3C1701.4,1250.2,1700.9,1249.1,1699.9,1248.1
		L1699.9,1248.1z"/>
</g>
</svg>
