<?xml version="1.0" encoding="utf-8"?>
<!-- Generator: Adobe Illustrator 27.9.0, SVG Export Plug-In . SVG Version: 6.00 Build 0)  -->
<svg version="1.1" id="Layer_1" xmlns="http://www.w3.org/2000/svg" xmlns:xlink="http://www.w3.org/1999/xlink" x="0px" y="0px"
	 viewBox="0 0 2500 2500" style="enable-background:new 0 0 2500 2500;" xml:space="preserve">
<style type="text/css">
	.st0{fill-rule:evenodd;clip-rule:evenodd;}
	.st1{fill-rule:evenodd;clip-rule:evenodd;fill:#FFFFFF;}
</style>
<g>
	<path class="st0" d="M1186.8,1106.2c15.7,0,21.9,1.3,26.6,3.2c11.9,4.7,19,15.1,19,27.8c0,14.8-9.4,25.7-27.4,28.9v0.3
		c10.1,3,16,11.3,23.4,22l0.8,1l10.8,16.7c0,0.2,0.3,0.5,0.5,0.8c9.1,14.5,15.8,17.3,21.7,18.5v1.7h-28.6c-1.7-2-3.2-3.5-5.4-6.9
		c-0.7-0.8-3.2-4.4-3.5-4.7c-0.2-0.3-0.3-0.7-0.5-0.8l-16.2-24.6c-0.2-0.2-0.2-0.3-0.8-1.3c-0.2-0.3-7.9-12.8-15.6-16.7
		c-3.2-1.5-6.1-2.4-14.5-2.7v41.9c0,10.1,5.2,14.1,13.6,14.1v1.7h-45.4v-1.7c9.3,0,13.6-4.4,13.6-13.8V1122
		c0-13.3-8.7-14.1-13.8-14.1v-1.7L1186.8,1106.2L1186.8,1106.2z M1177.1,1164.9c15,0,36-1,36-26.4c0-8.8-3.9-27.8-25.8-27.8
		c-3,0-7.6,0-10.3,1L1177.1,1164.9L1177.1,1164.9z M1313.7,1227.2h-45.3v-1.7c5-0.2,13.6-0.8,13.6-13.8v-90.2
		c0-12.6-8.4-13.3-13.6-13.6v-1.7h45.3v1.7c-5,0.3-13.6,1-13.6,13.6v90.2c0,13.1,8.6,13.6,13.6,13.8V1227.2z M1433.4,1106.2
		l-82,115.8h47.5c29.6,0,34-12.6,36.5-20.4h1.7l-3.7,25.6h-105.7v-2.5l81.5-112.4h-54.7c-15.3,0-23,3-24.9,16.8h-1.9v-22.9H1433.4z
		 M1504.8,1103.3c32.8,0,64.3,24.4,64.3,63.6c0,34.3-25.9,63.3-63.3,63.3c-35.2,0-64.6-26.6-64.6-63
		C1441.2,1130.2,1471.2,1103.3,1504.8,1103.3L1504.8,1103.3z M1507,1225.7c25.9,0,40.6-24.1,40.6-56c0-38-20-62.6-45.1-62.6
		c-15.5,0-40.1,10.8-40.1,56.7C1462.4,1197.7,1478,1225.7,1507,1225.7L1507,1225.7z M1683.3,1198.9v-77.4c0-12.5-8.4-13.3-13.8-13.6
		v-1.7h33.5v1.7c-5.6,0.3-13.8,1.2-13.8,13.6v108.7h-2l-89.7-101v82.5c0,13.1,8.6,13.6,13.7,13.8v1.7h-33.2v-1.7
		c5-0.2,13.6-0.8,13.6-13.8v-88.9l-4.7-5.4c-0.2-0.2-0.5-0.3-0.7-0.7c-7.1-8.2-12-8.6-15.7-8.9v-1.7h29.6L1683.3,1198.9
		L1683.3,1198.9z M1800.3,1206.6c5.4,15.8,11.3,17.8,18.5,18.8v1.7h-46.9v-1.7c3.9-0.2,12.1-0.3,12.1-9.1c0-1.5-0.2-3.4-2-8.8
		l-10.1-29.8H1733l-8.9,27.8c-1.1,3.3-1.8,6.7-2,10.1c0,9.1,7.3,9.6,10.1,9.8v1.7h-32.3v-1.7c9.9-0.7,14.6-8.8,17.2-16.5l33.3-104.5
		h15L1800.3,1206.6L1800.3,1206.6z M1734.8,1172h35l-17.8-52.9h-0.4L1734.8,1172L1734.8,1172z M1945.3,1106
		c-3.2-17.2-14.2-29.8-33.2-29.8c-17.8,0-27,12.6-27,25.1c0,16.6,15.3,27,31.3,37c21.9,13.8,39.6,24.5,39.6,48.9
		c0,9.6-2.6,21.3-14,31.9c-10.4,9.8-20.6,11.9-33.2,11.9c-8.2,0.1-16.2-1.4-23.8-4.5c-8.7-3.6-9.8-4-12.1-4c-2.3,0-5.7,1.1-6.2,6.4
		h-2.1l1.7-39.1h2.1c0.9,5.7,3,17.7,14,26.4c6.8,5.3,17.9,8.9,26.4,8.9c15.1,0,27.9-11.9,27.9-27c0-15.3-11.7-25.3-32.7-38.3
		c-18.1-11.3-36.4-22.7-36.4-48.3c0-18.5,12.8-40.8,44.5-40.8c7,0,14.9,1.1,20.6,3c2.6,0.8,6.4,1.9,8.7,1.9c2.9-0.2,5.2-2.3,5.7-5.1
		h2.1l-1.7,35.5L1945.3,1106L1945.3,1106L1945.3,1106z M2076.6,1129.9h-1.7c-1.3-15.7-14.5-16.8-23.4-16.8h-20.4v98.6
		c0,13.1,8.6,13.6,13.8,13.8v1.7h-45.6v-1.7c5.4-0.2,13.8-1,13.8-13.8v-98.6h-20.4c-9.8,0-21.5,1.2-23.4,16.8h-1.7v-29.3h1.7
		c0.7,2,1.5,2.7,4,3.9c2.5,1.2,12,1.7,15.5,1.7h66.5c10.9,0,13.4-0.7,15.8-1.3c2.5-0.7,3.3-2.7,3.7-4.2h1.7L2076.6,1129.9
		L2076.6,1129.9L2076.6,1129.9z M2171,1206.6c5.4,15.8,11.3,17.8,18.5,18.8v1.7h-47v-1.7c3.9-0.2,12.1-0.3,12.1-9.1
		c0-1.5-0.2-3.4-2-8.8l-10.1-29.8h-38.9l-8.9,27.8c-1.1,3.3-1.8,6.7-2,10.1c0,9.1,7.3,9.6,10.1,9.8v1.7h-32.3v-1.7
		c9.9-0.7,14.6-8.8,17.1-16.5l33.3-104.5h15L2171,1206.6z M2105.6,1172h35l-17.8-52.9h-0.4L2105.6,1172L2105.6,1172z M2293.2,1129.9
		h-1.7c-1.4-15.7-14.5-16.8-23.4-16.8h-20.4v98.6c0,13.1,8.6,13.6,13.8,13.8v1.7H2216v-1.7c5.4-0.2,13.8-1,13.8-13.8v-98.6h-20.4
		c-9.8,0-21.5,1.2-23.4,16.8h-1.7v-29.3h1.7c0.7,2,1.5,2.7,4,3.9c2.5,1.2,12,1.7,15.5,1.7h66.5c10.9,0,13.4-0.7,15.8-1.3
		c2.5-0.7,3.3-2.7,3.7-4.2h1.7L2293.2,1129.9L2293.2,1129.9L2293.2,1129.9z M2362.1,1164.1c3,0,15.5,0,16.5-12.5h1.7v29.8h-1.7
		c-0.7-8.2-6.2-12.8-15.3-12.8h-23.9v40.9c0,5-0.2,13.1,12.4,13.1h16.2c11.5,0,17-3.7,20-15h1.7l-3.5,19.5h-78.6v-1.7
		c5,0,13.8-0.5,13.8-14.1V1122c0-1.3,0.2-14.1-12.1-14.1h-1.7v-1.7h78.6v19.7h-1.7c0-11.3-6.4-15.2-16.5-15.2h-28.6v53.4
		L2362.1,1164.1L2362.1,1164.1z M1106.9,1400.2h-0.4c-4.5,9.2-18.5,28.5-47.8,28.5c-20,0-54-10.2-54-57.8v-77.2
		c0-16.2-10.4-17.4-17.4-17.9v-2.1h57.4v2.1c-7,0.4-17.2,1.7-17.2,17.9v76.4c0,8.5,0.8,17.2,4,25.1c5.9,14.5,20,22.3,34.4,22.3
		c16.2,0,28.9-9.4,34.9-18.3c5.7-8.7,6-21.1,6-25.5v-80c0-16.2-10.4-17.4-17.4-17.9v-2.1h57.6v2.1c-7.2,0.4-17.4,1.7-17.4,17.9V1407
		c0,15.9,10.4,17.2,17.4,17.4v2.1h-40L1106.9,1400.2L1106.9,1400.2L1106.9,1400.2z M1269.2,1398.3v-77.4c0-12.5-8.4-13.3-13.8-13.6
		v-1.7h33.5v1.7c-5.6,0.3-13.8,1.2-13.8,13.6v108.7h-2l-89.7-101v82.5c0,13.1,8.6,13.6,13.6,13.8v1.7h-33.2v-1.7
		c5.1-0.2,13.6-0.8,13.6-13.8v-88.9l-4.7-5.4c-0.2-0.2-0.5-0.3-0.7-0.7c-7.1-8.2-11.9-8.6-15.7-8.9v-1.7h29.6L1269.2,1398.3z
		 M1349.7,1426.5h-45.3v-1.7c5-0.2,13.6-0.8,13.6-13.8v-90.2c0-12.6-8.4-13.3-13.6-13.6v-1.7h45.3v1.7c-5,0.3-13.6,1-13.6,13.6v90.2
		c0,13.1,8.6,13.6,13.6,13.8V1426.5z M1406.9,1305.5v1.7c-3.3,0-11.9,0-11.9,9.8c0,4.2,3.5,13.1,3.7,13.4l26.9,67.7l23.2-67.7
		c0,0,0.3-1.2,0.5-1.3c1.5-4.2,2.7-10.3,2.7-12.5c0-8.9-7.4-9.3-11.1-9.4v-1.7h34.8v1.7c-5.6,0.5-12.1,2-18.2,17.7
		c-0.4,0.7-2,5.2-2.2,5.6l-34.8,99.2h-1.3l-42.6-105.5c-0.2-0.5-0.4-1-0.7-1.3c-0.2-0.5-0.4-1-0.7-1.5c-3.4-6.9-5.9-12.3-16.5-14
		v-1.7L1406.9,1305.5L1406.9,1305.5z M1541.1,1363.4c3,0,15.5,0,16.5-12.5h1.7v29.8h-1.7c-0.7-8.2-6.2-12.8-15.3-12.8h-23.9v40.9
		c0,5.1-0.2,13.1,12.4,13.1h16.2c11.5,0,17-3.7,20-15h1.7l-3.5,19.5h-78.6v-1.7c5,0,13.8-0.5,13.8-14.1v-89.4
		c0-1.3,0.2-14.1-12.1-14.1h-1.7v-1.7h78.6v19.7h-1.7c0-11.3-6.4-15.1-16.5-15.1h-28.6v53.3L1541.1,1363.4L1541.1,1363.4z
		 M1629,1305.5c15.7,0,21.9,1.3,26.6,3.2c12,4.7,19,15.1,19,27.8c0,14.8-9.4,25.8-27.4,28.9v0.3c10.1,3,16,11.3,23.4,22.1l0.9,1
		l10.7,16.7c0,0.2,0.4,0.5,0.5,0.8c9.1,14.5,15.8,17.4,21.7,18.5v1.7h-28.6c-1.7-2-3.2-3.5-5.4-6.9c-0.7-0.8-3.2-4.4-3.5-4.7
		c-0.1-0.3-0.3-0.6-0.5-0.8l-16.2-24.6c-0.2-0.2-0.2-0.3-0.8-1.3c-0.2-0.3-7.9-12.8-15.7-16.7c-3.2-1.5-6.1-2.4-14.5-2.7v41.9
		c0,10.1,5.2,14.1,13.7,14.1v1.7h-45.4v-1.7c9.2,0,13.6-4.4,13.6-13.8v-89.7c0-13.3-8.7-14.1-13.8-14.1v-1.7L1629,1305.5
		L1629,1305.5z M1619.2,1364.3c15,0,36-1,36-26.4c0-8.7-3.9-27.8-25.7-27.8c-3,0-7.6,0-10.3,1V1364.3z M1777.6,1330.6
		c-2.5-13.6-11.2-23.6-26.2-23.6c-14.1,0-21.4,9.9-21.4,19.9c0,13.1,12.1,21.4,24.7,29.3c17.3,10.9,31.3,19.3,31.3,38.7
		c0,7.6-2,16.8-11.1,25.2c-8.2,7.7-16.3,9.4-26.2,9.4c-6.5,0.1-12.9-1.1-18.8-3.5c-6.9-2.9-7.8-3.2-9.6-3.2s-4.6,0.8-4.9,5h-1.7
		l1.3-31h1.7c0.7,4.6,2.4,14,11.1,20.9c5.4,4.2,14.1,7.1,20.9,7.1c12,0,22-9.4,22-21.4c0-12.1-9.2-20-25.9-30.3
		c-14.3-8.9-28.8-18-28.8-38.2c0-14.6,10.1-32.3,35.2-32.3c5.6,0,11.8,0.8,16.3,2.4c2,0.7,5,1.5,6.9,1.5c2.3-0.1,4.2-1.8,4.6-4h1.7
		l-1.3,28.1L1777.6,1330.6L1777.6,1330.6L1777.6,1330.6z M1853.7,1426.5h-45.3v-1.7c5-0.2,13.7-0.8,13.7-13.8v-90.2
		c0-12.6-8.4-13.3-13.7-13.6v-1.7h45.3v1.7c-5.1,0.3-13.6,1-13.6,13.6v90.2c0,13.1,8.6,13.6,13.6,13.8V1426.5z M1979.5,1329.2h-1.7
		c-1.3-15.7-14.5-16.8-23.4-16.8H1934v98.6c0,13.1,8.6,13.6,13.8,13.8v1.7h-45.6v-1.7c5.4-0.2,13.8-1,13.8-13.8v-98.6h-20.4
		c-9.8,0-21.5,1.2-23.4,16.8h-1.7V1300h1.7c0.7,2,1.5,2.7,4,3.9c2.5,1.2,12,1.7,15.5,1.7h66.5c10.9,0,13.5-0.7,15.8-1.3
		c2.5-0.7,3.3-2.7,3.7-4.2h1.7L1979.5,1329.2L1979.5,1329.2L1979.5,1329.2z M2033.8,1305.5v1.7c-3,0-9.8,0-9.8,6.7
		c0,3,2.5,7.1,4,9.6l21.6,34l20.2-30.8c0,0,0.3-0.3,0.5-0.7c3-4.6,5.6-9.8,5.6-12.6c0-5.7-7.4-6.1-10.1-6.2v-1.7h36.5v1.7
		c-3.9,0.3-7.3,0.7-10.5,2.5c-6.1,3.5-14.3,15.8-14.8,16.7l-24.9,38.2v46.4c0,12.6,6.1,13.8,13.6,13.8v1.7h-45.3v-1.7
		c5.7,0,13.7-1.2,13.7-13.8v-45.6l-27.8-43.1c0-0.2-0.3-0.5-0.5-0.7c-0.2-0.3-0.5-0.8-3.9-5.6c-2.5-3.5-7.6-8.9-16.8-8.9v-1.7
		L2033.8,1305.5L2033.8,1305.5L2033.8,1305.5z M1114,1201.2l-44.2-129.1l-37.3,0v2c6.8,0.4,16.5,3.5,13.9,13l-37.7,117.1
		c-3.2,9.8-9.1,20-21.7,20.8v2.1h40.8v-2.1c-3.6-0.2-12.8-0.8-12.8-12.3c0-2.3,0.8-7.7,2.6-12.8l11.3-35.1h49.1l12.8,37.6
		c2.3,6.8,2.5,9.2,2.5,11.1c0,11.1-10.4,11.3-15.3,11.5v2.1h59.3v-2.1C1128.3,1223.8,1120.8,1221.2,1114,1201.2L1114,1201.2z
		 M1031.3,1157.4l21.3-66.8h0.4l22.5,66.8H1031.3L1031.3,1157.4z M930.4,1407.4c-12-12.9-11.3-26.5-11.3-26.5v-307.8h-117v246.1
		c-1.5,23.3-24.3,29.3-37,28.9c-18.1-0.6-28.6-10.7-28.6-28.1l0-246.8H622.5l0-0.1c-26.6,0-47.5,0.1-80.3,0.1
		c-62.3,0-121.2,9.5-141,61.2l-11.8-45.8c-2.9-9-12.7-15.5-22.4-15.5h-15.3l-152.4,0h-36c-2.9,0-4,0.9-2.4,3c0,0,5.5,5.3,15.5,16.7
		c13.9,15.8,8.5,37,8.5,37l-74.5,297.3h108.5l15.7-65.3h104.7l16.3,65.3h143c58.6,0,106.3-6,129.9-42.5
		c17.6,33.3,55.4,48.9,122.2,43.2c23.3-2,46.1-12.9,55.9-30.1l4.5,14.3c3.9,8.6,11.9,15,23.2,15h109.3c2.9,0,4-0.8,2.4-2.9
		C945.9,1424.2,940.1,1417.8,930.4,1407.4L930.4,1407.4z M251.1,1297.9l36.2-145.3l36.4,145.3H251.1z M932.8,1094.7h3.1v-18.8h6.7
		v-2.7h-16.5v2.7h6.7V1094.7z M964.2,1073.1l-6.6,17.9l-6.8-17.9h-5.1v21.6h3.1V1076h0.1l7.1,18.7h3l7.1-18.7h0.1v18.7h3.1v-21.6
		H964.2z"/>
	<path class="st1" d="M396.9,1159.2l0.1-0.8c0.4-3.1,1-6.2,1.6-9.3l0.1-0.3l-19.6-11.8c-0.9-0.6-2.3-0.5-3,0.3
		c-0.4,0.4-0.6,0.9-0.5,1.5c0.1,0.5,0.3,1,0.7,1.4L396.9,1159.2L396.9,1159.2z M396.5,1191.1l-0.1-0.8c-0.4-4.2-0.6-8.3-0.6-12.5
		v-1.2l-36.5-14.6c-1-0.4-2.3-0.1-2.9,0.8c-0.3,0.4-0.4,1-0.2,1.5c0.2,0.5,0.5,1,1,1.3L396.5,1191.1L396.5,1191.1z M342.9,1193.3
		l61.9,27.1l-0.5-1c-2.6-5.6-4.7-11.5-6-17.6l-0.1-0.3l-53.9-12c-1.1-0.3-2.3,0.2-2.7,1.2c-0.2,0.5-0.2,1,0,1.5
		C341.9,1192.7,342.4,1193.1,342.9,1193.3L342.9,1193.3z M497.4,1281.9c-33.9-11.6-72.4-24.9-90.8-58.1l-0.1-0.2l-71.3-4.5
		c-1.1-0.1-2.3,0.6-2.5,1.6c-0.1,0.5,0,1,0.3,1.4c0.3,0.5,0.9,0.8,1.4,0.9l71.4,18.4c0.2,0,0.5,0.1,0.6,0.3c0.1,0.1,0.1,0.3,0.1,0.4
		c0,0.4-0.4,0.6-0.8,0.6l-74,6.9c-1.1,0.1-2.1,0.9-2.1,2c0,0.5,0.2,1,0.6,1.3c0.4,0.4,1,0.6,1.6,0.7l73.9,6.9c0.4,0,0.7,0.2,0.8,0.6
		c0,0.2,0,0.4-0.2,0.5c-0.1,0.1-0.2,0.2-0.4,0.2l-71.6,18.4c-0.5,0.1-1,0.4-1.3,0.9c-0.3,0.4-0.4,0.9-0.3,1.4c0.2,1,1.4,1.7,2.5,1.6
		l74-4.7c0.4-0.1,0.8,0.1,0.9,0.4c0,0.2,0,0.4-0.1,0.5c-0.1,0.1-0.2,0.2-0.4,0.3l-66.7,29.1c-0.5,0.2-1,0.6-1.2,1.1
		c-0.2,0.5-0.2,1,0,1.5c0.4,1,1.7,1.5,2.8,1.2l71.9-16.1c0.6-0.1,0.9,0,1.1,0.4c0.1,0.1,0.1,0.3,0,0.4c-0.1,0.2-0.2,0.3-0.4,0.4
		l-60,39c-0.5,0.3-0.9,0.7-1.1,1.3c-0.1,0.5-0.1,1.1,0.2,1.5c0.6,0.9,2,1.2,3,0.8l67.6-27.1c0.3-0.2,0.8-0.1,1,0.2
		c0.1,0.2,0.2,0.4,0.1,0.6c0,0.1-0.1,0.2-0.2,0.3l-51.5,47.7c-0.4,0.4-0.7,0.9-0.8,1.5c0,0.5,0.1,1,0.5,1.4c0.8,0.8,2.1,0.9,3.1,0.3
		l61.4-37.2c0.3-0.2,0.7-0.2,1,0c0.3,0.3,0.3,0.5,0.3,0.6c0,0.2-0.2,0.4-0.2,0.4l-41.6,55.2c-0.3,0.4-0.4,0.8-0.4,1.3
		c0.1,0.5,0.4,1,0.8,1.3c0.9,0.7,2.3,0.5,3-0.2l53.3-46.1c0.2-0.3,0.7-0.4,1-0.2c0.3,0.2,0.4,0.4,0.4,0.6c0,0.2-0.1,0.3-0.1,0.4
		l-30.1,60.6c-0.3,0.5-0.3,1-0.2,1.5c0.1,0.5,0.5,1,1.1,1.3c1,0.5,2.4,0.2,3-0.7c0,0,43.8-54.1,43.9-54c8.8,4,17.4,6.6,24.3,7.3
		c20.8,2,40.1-2.7,50.6-12.2c5.4-5,8.2-10.9,8.2-17.6C558.8,1303,530.3,1293.2,497.4,1281.9L497.4,1281.9z M639.3,1363.2l-0.2,0.7
		c-1,3-2.1,6-3.3,8.9l-0.1,0.3l16.8,14.6c0.8,0.7,2.1,0.8,3,0.1c0.4-0.3,0.7-0.8,0.8-1.4c0-0.5-0.1-1-0.4-1.4L639.3,1363.2z
		 M644.8,1330.8l-0.1,0.8c-0.3,4.8-0.8,9.5-1.5,14l0,0.3l33.7,20.4c0.9,0.6,2.2,0.5,3-0.3c0.4-0.4,0.6-0.9,0.5-1.5
		c-0.1-0.5-0.3-1-0.7-1.3L644.8,1330.8L644.8,1330.8z M644,1302.1l0.1,0.9c0.7,4.8,1.1,9.8,1.1,15l0,2.8l51.6,20.7
		c1,0.4,2.2,0.1,2.9-0.8c0.3-0.4,0.4-1,0.2-1.5c-0.2-0.5-0.5-0.9-1-1.2L644,1302.1L644,1302.1z M725.7,1250.3
		c-0.4-0.4-0.9-0.6-1.5-0.7l-73.9-6.9c-0.4,0-0.7-0.2-0.7-0.6c0-0.2,0-0.4,0.1-0.5c0.1-0.1,0.3-0.2,0.4-0.2l71.4-18.3
		c0.6-0.1,1.1-0.4,1.4-0.9c0.3-0.4,0.4-0.9,0.3-1.4c-0.2-1.1-1.3-1.7-2.5-1.6l-74.1,4.7c-0.4,0.1-0.7-0.1-0.8-0.4
		c0-0.2,0-0.4,0.1-0.5c0.1-0.1,0.2-0.2,0.4-0.3l66.8-29.2c0.5-0.2,1-0.6,1.2-1.1c0.2-0.5,0.2-1,0-1.5c-0.4-1-1.7-1.4-2.8-1.2
		l-72.1,16.1c-0.4,0.2-0.9,0.1-1-0.2c-0.1-0.1-0.1-0.4,0-0.5c0.1-0.2,0.2-0.3,0.4-0.4l60.2-39.2c0.5-0.3,0.8-0.7,1-1.3
		c0.1-0.5,0.1-1-0.2-1.5c-0.6-0.9-1.9-1.2-3-0.8l-68,27.1c-0.3,0.2-0.7,0.2-0.9-0.1c-0.1-0.2-0.2-0.3-0.2-0.5c0-0.1,0.1-0.3,0.2-0.4
		l51.8-48c0.4-0.3,0.7-0.8,0.7-1.3c0-0.5-0.1-1.1-0.5-1.5c-0.7-0.8-2-1-2.9-0.3l-61.9,37.4c-0.3,0.2-0.7,0.2-1,0
		c-0.1-0.1-0.2-0.2-0.2-0.4c0-0.2,0.1-0.3,0.2-0.5l41.6-55.3c0.3-0.4,0.5-0.9,0.5-1.5c0-0.6-0.3-1.1-0.8-1.4
		c-0.9-0.7-2.3-0.6-3.1,0.2L599,1162c-0.2,0.3-0.7,0.4-1,0.2c-0.2-0.1-0.3-0.2-0.3-0.4c0-0.1,0-0.3,0.1-0.4l30.3-61
		c0.3-0.4,0.4-1,0.2-1.5c-0.2-0.6-0.5-1-1-1.3c-1-0.5-2.4-0.2-3,0.7l-44.7,54.9c-12.4-6-33-9.6-42.6-9.6l-0.8,0
		c-19.6-0.5-34.3,3.4-42.3,11.2c-4.6,4.5-7,10.3-7,17.3c0,9.6,5.4,17.5,17,24.7c10.4,6.5,24.8,12,40.1,17.7
		c19.9,7.5,42.5,16.1,61,28.8c21.2,14.6,33.7,32.5,38.2,54.7l0.1,0.2l68.4,15.3c1.1,0.3,2.2-0.3,2.6-1.3c0.2-0.5,0.2-1-0.1-1.5
		c-0.3-0.5-0.7-0.9-1.2-1.1l-66.7-29.2c-0.2,0-0.3-0.1-0.4-0.3c-0.1-0.2-0.1-0.4-0.1-0.6c0.1-0.3,0.5-0.5,0.9-0.4l74,4.7
		c1.2,0.1,2.2-0.6,2.4-1.6c0.1-0.5,0-1-0.3-1.4c-0.3-0.5-0.8-0.8-1.4-0.9l-71.4-18.3c-0.2,0-0.4-0.1-0.5-0.3
		c-0.1-0.1-0.2-0.3-0.1-0.4c0.1-0.4,0.4-0.6,0.8-0.6l73.8-6.9c0.6,0,1.1-0.2,1.6-0.6c0.4-0.4,0.6-0.8,0.6-1.3
		C726.3,1251.2,726.1,1250.7,725.7,1250.3L725.7,1250.3z"/>
</g>
</svg>
