<svg width="187" height="56" viewBox="0 0 187 56" fill="none" xmlns="http://www.w3.org/2000/svg">
<g clip-path="url(#clip0_36_325)">
<path d="M0.593018 39.5735V0.909912H7.4566V39.5735H0.593018Z" fill="white"/>
<path d="M25.0258 11.5244C16.2258 11.5244 10.1361 18.2196 10.1361 25.883C10.1361 34.4358 16.761 40.3277 25.0942 40.3277C33.0029 40.3277 39.8658 34.5442 39.8658 25.8645C39.8658 18.5658 34.1789 11.5244 25.0258 11.5244ZM24.945 18.0762C29.5503 18.0762 32.9401 21.6235 32.9401 25.9076C32.9401 30.45 29.2028 33.7636 25.0694 33.7636C20.1853 33.7636 17.1116 29.9331 17.1116 25.9199C17.1116 21.521 20.5818 18.0762 24.945 18.0762Z" fill="white"/>
<path d="M57.1106 11.5244C48.3106 11.5244 42.2209 18.2196 42.2209 25.883C42.2209 34.4358 48.8458 40.3277 57.179 40.3277C65.0877 40.3277 71.9506 34.5442 71.9506 25.8645C71.9506 20.7533 69.7137 18.4854 69.7137 18.4854L71.6161 17.8399V12.3278H61.8679C61.8679 12.3278 59.7545 11.5244 57.1106 11.5244ZM57.0298 18.0762C61.6351 18.0762 65.0249 21.6235 65.0249 25.9076C65.0249 30.45 61.2875 33.7636 57.1541 33.7636C52.2701 33.7636 49.1964 29.9331 49.1964 25.9199C49.1964 21.521 52.6666 18.0762 57.0298 18.0762Z" fill="white"/>
<path d="M64.9764 41.4634C64.9764 46.0057 61.239 49.344 57.1056 49.344C52.2215 49.344 49.1354 45.4765 49.1354 41.4634H42.1724C42.1724 50.0161 48.7973 55.9081 57.1305 55.9081C65.0392 55.9081 71.9021 50.143 71.9021 41.4634H64.9764Z" fill="white"/>
<path d="M74.6998 39.5735V12.3279H81.5633V39.5735H74.6998Z" fill="white"/>
<path d="M88.228 39.5734V18.4305H84.5475V12.3278H88.228V3.96118H95.0916V12.3278H98.8715V18.4305H95.0916V39.5734H88.228Z" fill="white"/>
<path d="M82.6623 4.5895C82.6623 7.07337 80.6274 9.08695 78.1172 9.08695C75.6071 9.08695 73.5722 7.07337 73.5722 4.5895C73.5722 2.10562 75.6071 0.092041 78.1172 0.092041C80.6274 0.092041 82.6623 2.10562 82.6623 4.5895Z" fill="white"/>
<path d="M114.302 11.5059C105.46 11.5059 99.7606 18.2046 99.7606 26.129C99.7606 34.318 105.479 40.3461 114.445 40.3461C122.809 40.3461 126.923 35.1785 126.923 35.1785L122.335 30.6322C122.335 30.6322 118.87 34.3295 114.532 34.3295C110.916 34.3295 108.025 32.3322 107.016 28.6697H128.402V26.7995C128.402 19.3372 124.037 11.5059 114.302 11.5059ZM114.085 17.4855C117.246 17.4855 120.48 19.1593 121.203 23.1576H106.829C107.399 20.3471 109.883 17.4855 114.085 17.4855Z" fill="white"/>
<path d="M145.57 40.3496C136.704 40.3496 130.662 33.6671 130.662 25.788C130.662 17.6568 137.49 11.5007 145.542 11.5007C153.325 11.5007 157.31 16.938 157.31 16.938L152.522 21.6544C152.522 21.6544 149.748 18.1084 145.509 18.1084C140.811 18.1084 137.598 21.6649 137.598 25.8923C137.598 30.356 141.016 33.7806 145.456 33.7806C149.764 33.7806 152.515 30.2404 152.515 30.2404L157.351 34.9542C157.351 34.9542 153.405 40.3496 145.57 40.3496Z" fill="white"/>
<path d="M159.848 39.593V0.811279H166.712V15.0599C166.712 15.0599 169.34 11.5007 175.056 11.5007C182.243 11.5007 186.407 16.7873 186.407 23.5488V39.593H179.543V24.5753C179.543 20.0328 176.685 18.1482 173.519 18.1482C169.912 18.1482 166.712 20.1797 166.712 24.9268V39.593H159.848Z" fill="white"/>
</g>
<defs>
<clipPath id="clip0_36_325">
<rect width="186" height="56" fill="white" transform="translate(0.5)"/>
</clipPath>
</defs>
</svg>
