<?xml version="1.0" encoding="UTF-8"?><svg id="Layer_1" xmlns="http://www.w3.org/2000/svg" xmlns:xlink="http://www.w3.org/1999/xlink" viewBox="0 0 1000 1000"><defs><style>.cls-1{fill:#33bfc6;}.cls-1,.cls-2,.cls-3,.cls-4,.cls-5,.cls-6,.cls-7,.cls-8,.cls-9,.cls-10,.cls-11,.cls-12,.cls-13,.cls-14,.cls-15,.cls-16,.cls-17{stroke-width:0px;}.cls-2{fill:#603215;}.cls-3{fill:#b49d8e;}.cls-4{fill:#fbe2b4;}.cls-18{isolation:isolate;opacity:.5;stroke:#f57f20;stroke-width:3px;}.cls-18,.cls-12{fill:#febc12;}.cls-18,.cls-19{stroke-miterlimit:10;}.cls-6{fill:#c3b0a4;}.cls-7,.cls-19{fill:none;}.cls-8{fill:#a18573;}.cls-9{fill:#6a3f21;}.cls-10{fill:#fff;}.cls-11{fill:#530e21;}.cls-13{fill:#961a2f;}.cls-20{clip-path:url(#clippath);}.cls-14{fill:#8c1d40;}.cls-15{fill:#8d6c55;}.cls-16{fill:#a78d7b;}.cls-19{stroke:#fff;stroke-width:18px;}.cls-17{fill:#491120;}</style><clipPath id="clippath"><path class="cls-7" d="m941.34,424.57h-28.36c-1.85,0-15.75-.4-17.56-.4-17.07,0-25.5-9.23-29.53-19.04l-5.38-13.25c-6.21-5.42-15.38-5.71-21.93-.71l-9.23,16.98c-5.47,10.31-16.39,16.54-28.05,16-1.85,0-18.85.43-20.7.43h-22.36c-18.11.02-32.81-14.65-32.85-32.76v-59.08c.03-18.11,14.74-32.76,32.84-32.73.03,0,.06,0,.1,0h183c18.11-.03,32.81,14.62,32.85,32.73h0v59.08c-.03,18.11-14.73,32.77-32.85,32.76Z"/></clipPath></defs><g id="Vertical_White_"><path id="Path_114" class="cls-10" d="m29.63,499.74H6.9l22.73-196.84,74.92,135.64,74.89-135.64,22.73,196.84h-22.73l-13.9-126.65-60.99,109.15-60.99-109.15-13.93,126.65Z"/><path id="Path_115" class="cls-10" d="m257.01,478.21h84.24v21.53h-107v-187.37h107v21.53h-84.24v53.52h78.99v21.53h-78.99v69.25Z"/><path id="Path_116" class="cls-10" d="m362.66,312.37h119.04v21.53h-48.18v165.84h-22.73v-166.08h-48.13v-21.29Z"/><path id="Path_117" class="cls-10" d="m528.5,478.21h84.32v21.53h-107.04v-187.37h107.04v21.53h-84.28v53.52h78.92v21.53h-78.95v69.25Z"/><path id="Path_118" class="cls-10" d="m649.13,368.01c4.58-11.41,11.39-21.78,20.05-30.51,8.54-8.82,18.84-15.74,30.23-20.33,24.16-9.96,51.28-9.96,75.44,0,11.39,4.59,21.68,11.52,30.23,20.33,8.61,8.74,15.39,19.11,19.93,30.51,9.27,24.48,9.27,51.5,0,75.98-4.58,11.4-11.4,21.76-20.05,30.48-8.54,8.82-18.84,15.75-30.23,20.33-24.15,10.02-51.29,10.02-75.44,0-11.4-4.57-21.7-11.5-30.23-20.33-8.65-8.72-15.47-19.08-20.05-30.48-9.27-24.48-9.27-51.5,0-75.98h.12Zm26.2,75.69c6.07,10.69,14.72,19.7,25.16,26.2,22.73,12.87,50.56,12.87,73.29,0,10.44-6.5,19.09-15.51,25.16-26.2,6.18-11.6,9.35-24.57,9.23-37.71.12-13.15-3.05-26.13-9.23-37.74-6.09-10.68-14.73-19.69-25.16-26.2-22.74-12.84-50.55-12.84-73.29,0-10.43,6.52-19.07,15.52-25.16,26.2-6.18,11.61-9.35,24.59-9.23,37.74-.12,13.14,3.05,26.11,9.23,37.71Z"/><path id="Path_119" class="cls-10" d="m886.93,499.74h-22.76v-187.37h50.84c11.27-.27,22.45,2.11,32.63,6.95,9.18,4.12,16.98,10.81,22.45,19.25,5.96,8.83,9.01,19.31,8.72,29.96.36,12.93-4.13,25.52-12.58,35.31-8.31,9.23-12.86,15.38-25.96,18.73l55.92,76.9h-28.08l-52.29-74.89h-28.88v75.16Zm28.08-94.97c10.59.47,21.01-2.79,29.43-9.23,7.79-6.64,12.04-16.54,11.47-26.76.56-10.22-3.68-20.12-11.47-26.76-8.42-6.43-18.84-9.7-29.43-9.23h-28.08v71.85l28.08.13Z"/><path id="Path_120" class="cls-10" d="m95.85,688.03c7.73,7.47,18.14,11.52,28.88,11.23,10.7,0,18.73-2.68,24.08-8.03,5.62-6.03,8.52-14.1,8.03-22.33.34-7.2-2.06-14.27-6.71-19.78-4.57-5.4-10.21-9.78-16.58-12.85-6.6-3.54-13.5-6.49-20.61-8.83-4.52-1.6-9.63-3.75-15.22-5.88-5.43-2.6-10.58-5.74-15.38-9.38-4.98-3.91-9.07-8.83-12.03-14.42-3.16-6.73-4.72-14.1-4.55-21.53-.61-17.8,9.36-34.27,25.41-41.98,9.03-4.22,18.91-6.33,28.88-6.15,9.08-.12,18.08,1.75,26.36,5.48,7.36,3.51,13.85,8.63,18.98,14.98,5.15,5.94,9.38,12.6,12.58,19.78l-18.46,12.3c-2.78-5.32-6.1-10.34-9.9-14.98-3.68-4.58-8.23-8.4-13.38-11.23-5.62-3.18-12-4.76-18.46-4.55-9.23,0-16.58,2.4-21.13,7.23-4.81,5.34-7.3,12.36-6.95,19.54-.17,5.76,2.06,11.33,6.15,15.38,4.6,4.71,10.05,8.52,16.05,11.23,6.67,3.08,13.62,6.15,21.13,9.23,5.26,2.02,10.39,4.34,15.38,6.95,5.6,2.91,10.82,6.5,15.53,10.7,5.03,4.17,9.05,9.43,11.75,15.38,3.18,6.86,4.74,14.37,4.55,21.93.23,9.86-2.27,19.59-7.23,28.11-4.63,8.02-11.51,14.52-19.78,18.7-9.28,4.68-19.57,6.99-29.96,6.71-14.84.16-29.25-4.96-40.66-14.46-11.87-10.01-20.88-22.97-26.11-37.59l19.25-11.5c4.64,11.42,11.46,21.83,20.08,30.63h0Z"/><path id="Path_121" class="cls-10" d="m195.07,530.74h119.04v21.53h-48.15v165.84h-22.73v-166.08h-48.16v-21.29Z"/><path id="Path_122" class="cls-10" d="m359.58,530.74v125.87c0,12.85,3.48,23.28,10.43,31.03,6.95,7.75,17.13,11.78,30.51,11.78s23.53-4,30.48-11.78c6.95-7.78,10.43-18.18,10.43-31.03v-125.87h22.73v125.87c.21,11.53-2.46,22.94-7.75,33.19-5.23,9.43-12.9,17.28-22.21,22.73-10.29,5.84-22.01,8.72-33.84,8.31-11.7.35-23.28-2.53-33.46-8.31-9.43-5.37-17.2-13.23-22.45-22.73-5.24-10.26-7.85-21.67-7.59-33.19v-125.87h22.73Z"/><path id="Path_123" class="cls-10" d="m505.62,718.11v-187.37h56.19c16.87-.27,33.54,3.78,48.41,11.75,13.95,7.6,25.46,19.02,33.16,32.91,8.24,14.98,12.39,31.87,12.06,48.96.37,17.18-3.79,34.15-12.06,49.22-7.78,13.76-19.27,25.07-33.16,32.63-14.86,8.03-31.52,12.12-48.41,11.9h-56.19Zm56.19-22.73c12.86.32,25.59-2.73,36.91-8.83,10.51-5.58,19.22-14.03,25.13-24.36,6.18-11.59,9.22-24.58,8.83-37.71.39-13.13-2.65-26.14-8.83-37.74-5.91-10.32-14.62-18.76-25.13-24.33-11.33-6.1-24.05-9.15-36.91-8.83h-33.46v141.78h33.46Z"/><path id="Path_124" class="cls-10" d="m710.24,530.74v187.37h-22.73v-187.37h22.73Z"/><path id="Path_125" class="cls-10" d="m749.3,586.38c4.58-11.41,11.39-21.78,20.05-30.51,8.54-8.82,18.84-15.74,30.23-20.33,24.16-9.96,51.28-9.96,75.44,0,11.39,4.59,21.68,11.52,30.23,20.33,8.66,8.73,15.48,19.1,20.05,30.51,9.27,24.48,9.27,51.5,0,75.98-4.58,11.4-11.4,21.76-20.05,30.48-8.54,8.82-18.84,15.75-30.23,20.33-24.15,10.02-51.29,10.02-75.44,0-11.4-4.57-21.7-11.5-30.23-20.33-8.65-8.72-15.47-19.08-20.05-30.48-9.27-24.48-9.27-51.5,0-75.98Zm26.2,75.69c18.86,34.13,61.83,46.51,95.96,27.65,11.63-6.43,21.22-16.01,27.65-27.65,12.08-23.7,12.08-51.75,0-75.44-18.86-34.13-61.83-46.51-95.96-27.65-11.63,6.43-21.22,16.01-27.65,27.65-12.08,23.7-12.08,51.75,0,75.44h0Z"/><g class="cls-20"><g id="Group_40"><rect id="Rectangle_78" class="cls-1" x="695.66" y="233.11" width="375.41" height="224.52"/><path id="Path_126" class="cls-12" d="m732.75,350.85c-18.11,0-10.92-28.7-6.8-37.68,1.29-2.77,2.12-7.23,11.93-9.66,6.95-1.69,22.42-.98,27.93-4.12,7.81-4.45,12.24-13.11,11.26-22.05-.74-3.29,2.89,18.27.71,25.65-2.71,9.23,5.51,19.22,12.3,18.46,9.07-1.17,18.88-14.79,11.44-34.32-5.23-13.75,9.75-14.21,18.88-18.46,9.13-4.25,37.62-23.87,36.23-22.51s-21.53,29.77-21.13,37.86,14.85,9.66,26.42,1.05c9.99-7.41,17.54-25.22,17.54-25.22,0,0,2.28,49.83-26.79,47.27-28.39-2.49-21.16,26.36-21.16,26.36,8.46-8.98,23.22-1.66,30.91-.98,14.33,1.17,14.85-22.48,14.85-22.48,0,0,9.78,31.5-19.16,41.18-14.24,4.8-5.69,15.38,3.08,15.72,7.94.15,10.12-11.29,10.12-11.29,0,0,1.11,18.46-5.23,21.53-5.78,2.71-29.37,20.51-27.07,40.69.83,7.26-9.01,12.3-19.59,10-3.08-.71-14.64,8.89-16.7-4.74-3.48-22.94,3.69-25.77,0-33.19-2.15-4.34-10.95-5.63-15.16-11.72-5.66-8.15-7.17-21.22-12.3-25.96-14.84-13.32-11.24-1.38-42.52-1.38Z"/><path id="Path_127" class="cls-2" d="m643.93,412.51c.63.7.82,1.7.49,2.58l-.49-2.58Z"/><path id="Path_128" class="cls-9" d="m645,418.36c.61.45.77,1.3.37,1.94l-.37-1.94Z"/><path id="Path_129" class="cls-16" d="m643.56,408.85l.22,1.29c0,.18,0,.22-.25,0l-.25-1.32s.28-.09.28.03Z"/><path id="Path_130" class="cls-15" d="m643.56,410.24h.25c0,.37.31.74,0,1.05l-.25-1.05Z"/><path id="Path_131" class="cls-8" d="m645.62,421.62c.37,0,.4.31.4.62s-.15.15-.28,0l-.12-.62Z"/><path id="Path_132" class="cls-6" d="m643.56,408.85h-.28v-.65c.28.06.28.37.28.65Z"/><path id="Path_133" class="cls-3" d="m645.74,422.26h.28c0,.25.22.52-.15.68l-.12-.68Z"/><path id="Path_134" class="cls-4" d="m917.29,258.55c-.4-.4-.86,0-1.29,0,.32-.43.86-.63,1.38-.52.68.12.06.34-.09.52Z"/><circle id="Ellipse_42" class="cls-14" cx="729.83" cy="413.04" r="98.54"/><ellipse id="Ellipse_43" class="cls-13" cx="739.82" cy="328.62" rx="21.43" ry="35.24" transform="translate(326.89 1024.9) rotate(-83.28)"/><path id="Path_135" class="cls-11" d="m763.69,339.5c-5.84,2.77-12.18,4.35-18.63,4.67-6.81.45-13.63-.6-19.99-3.08-4.63-1.88-8.61-5.09-11.41-9.23-2.21-3.21-3.55-6.94-3.91-10.83,1.58,4.16,4.35,7.77,7.97,10.37.71.05,1.38.32,1.94.77,4.45,2.46,9.34,4,14.39,4.56,7.44,1.22,15.04,1.22,22.48,0,2.28-.27,4.55-.66,6.8-1.17,4.8-1.36,9.22-3.82,12.92-7.17-3.33,4.57-7.61,8.36-12.55,11.1h0Z"/><ellipse id="Ellipse_44" class="cls-5" cx="740.66" cy="321.34" rx="10.55" ry="24.11" transform="translate(334.85 1019.31) rotate(-83.28)"/><ellipse id="Ellipse_45" class="cls-13" cx="807.66" cy="362.58" rx="10.73" ry="29.3" transform="translate(-66.08 505.27) rotate(-33.45)"/><path id="Path_136" class="cls-11" d="m812.72,384.52c-4.14-3.02-7.87-6.58-11.07-10.58-3.59-4.33-6.59-9.12-8.92-14.24-1.59-3.39-2.4-7.09-2.37-10.83-.06-2.29.62-4.53,1.94-6.4-.75,3.49-.69,7.12.18,10.58,2.71,8.49,8.12,16.51,18.46,26.94.93,1.12,1.96,2.15,3.08,3.08,2.7,2.52,5.82,4.53,9.23,5.94-2.88-.5-5.63-1.54-8.12-3.08-.96-.46-1.63-1.22-2.4-1.41Z"/><ellipse id="Ellipse_46" class="cls-5" cx="810.68" cy="360.53" rx="5.26" ry="20.04" transform="translate(-64.45 506.59) rotate(-33.45)"/><ellipse id="Ellipse_47" class="cls-13" cx="815.28" cy="427.79" rx="31.19" ry="13.13" transform="translate(168.84 1083.39) rotate(-73.09)"/><path id="Path_137" class="cls-11" d="m798.32,440.47c-.16-5.88.29-11.75,1.35-17.53,1-5.76,2.76-11.37,5.23-16.67,1.33-3.11,3.57-5.75,6.43-7.57,1.68-1.11,3.8-1.35,5.69-.65-2.54.56-4.75,2.11-6.15,4.31-.09.56-.34,1.08-.71,1.51-2.15,3.54-3.82,7.36-4.95,11.35-2,6.41-3.43,12.99-4.24,19.65-.03.48-.16.95-.37,1.38-.25,1.61-.37,3.23-.37,4.86-.28,4.41,0,8.83.86,13.16-1.25-3.44-2.06-7.03-2.4-10.67-.03-1.05-.15-2.1-.37-3.13Z"/><ellipse id="Ellipse_48" class="cls-5" cx="820.32" cy="420.94" rx="8.92" ry="19.65" transform="translate(-8.78 17.56) rotate(-1.22)"/><path id="Path_138" class="cls-18" d="m732.75,350.85c-18.11,0-10.92-28.7-6.8-37.68,1.29-2.77,2.12-7.23,11.93-9.66,6.95-1.69,22.42-.98,27.93-4.12,7.81-4.45,12.24-13.11,11.26-22.05-.74-3.29,2.89,18.27.71,25.65-2.71,9.23,5.51,19.22,12.3,18.46,9.07-1.17,18.88-14.79,11.44-34.32-5.23-13.75,9.75-14.21,18.88-18.46,9.13-4.25,37.62-23.87,36.23-22.51s-21.53,29.77-21.13,37.86,14.85,9.66,26.42,1.05c9.99-7.41,17.54-25.22,17.54-25.22,0,0,2.28,49.83-26.79,47.27-28.39-2.49-21.16,26.36-21.16,26.36,8.46-8.98,23.22-1.66,30.91-.98,14.33,1.17,14.85-22.48,14.85-22.48,0,0,9.78,31.5-19.16,41.18-14.24,4.8-5.69,15.38,3.08,15.72,7.94.15,10.12-11.29,10.12-11.29,0,0,1.11,18.46-5.23,21.53-5.78,2.71-29.37,20.51-27.07,40.69.83,7.26-9.01,12.3-19.59,10-3.08-.71-14.64,8.89-16.7-4.74-3.48-22.94,3.69-25.77,0-33.19-2.15-4.34-10.95-5.63-15.16-11.72-5.66-8.15-7.17-21.22-12.3-25.96-14.84-13.32-11.24-1.38-42.52-1.38Z"/><circle id="Ellipse_49" class="cls-17" cx="747.48" cy="398.12" r="11.53"/><circle id="Ellipse_50" class="cls-17" cx="781.75" cy="399.35" r="5.32"/><circle id="Ellipse_51" class="cls-17" cx="773.47" cy="390.28" r="2.31"/><circle id="Ellipse_52" class="cls-17" cx="748.34" cy="366.69" r="6"/><circle id="Ellipse_53" class="cls-17" cx="762.22" cy="359.89" r="2.4"/></g></g><path id="Path_140" class="cls-19" d="m941.34,424.57h-28.36c-1.85,0-15.75-.4-17.56-.4-17.07,0-25.5-9.23-29.53-19.04l-5.38-13.25c-6.21-5.42-15.38-5.71-21.93-.71l-9.23,16.98c-5.47,10.31-16.39,16.54-28.05,16-1.85,0-18.85.43-20.7.43h-22.36c-18.11.02-32.81-14.65-32.85-32.76v-59.08c.03-18.11,14.74-32.76,32.84-32.73.03,0,.06,0,.1,0h183c18.11-.03,32.81,14.62,32.85,32.73h0v59.08c-.03,18.11-14.73,32.77-32.85,32.76Z"/></g></svg>