<?xml version="1.0" encoding="UTF-8"?><svg id="Layer_1" xmlns="http://www.w3.org/2000/svg" xmlns:xlink="http://www.w3.org/1999/xlink" viewBox="0 0 1000 1000"><defs><style>.cls-1{fill:#33bfc6;}.cls-1,.cls-2,.cls-3,.cls-4,.cls-5,.cls-6,.cls-7,.cls-8,.cls-9,.cls-10,.cls-11,.cls-12,.cls-13,.cls-14,.cls-15,.cls-16{stroke-width:0px;}.cls-2{fill:#603215;}.cls-3{fill:#b49d8e;}.cls-4{fill:#fbe2b4;}.cls-17{isolation:isolate;opacity:.5;stroke:#f57f20;stroke-width:3px;}.cls-17,.cls-18{stroke-miterlimit:10;}.cls-17,.cls-11{fill:#febc12;}.cls-6{fill:#c3b0a4;}.cls-7,.cls-18{fill:none;}.cls-18{stroke:#000;stroke-width:18px;}.cls-8{fill:#a18573;}.cls-9{fill:#6a3f21;}.cls-10{fill:#530e21;}.cls-12{fill:#961a2f;}.cls-19{clip-path:url(#clippath);}.cls-13{fill:#8c1d40;}.cls-14{fill:#8d6c55;}.cls-15{fill:#a78d7b;}.cls-16{fill:#491120;}</style><clipPath id="clippath"><path class="cls-7" d="m943.27,429.33h-28.6c-1.86,0-15.88-.4-17.71-.4-17.21,0-25.71-9.32-29.78-19.2l-5.43-13.34c-6.26-5.49-15.52-5.78-22.11-.71l-9.32,17.13c-5.51,10.4-16.53,16.68-28.29,16.13-1.86,0-19.01.4-20.87.4h-22.54c-18.25.04-33.09-14.73-33.13-32.98,0,0,0-.01,0-.02v-59.59c.03-18.27,14.86-33.05,33.13-33.03h184.54c18.27-.02,33.09,14.77,33.13,33.03v59.58c-.03,18.23-14.81,32.99-33.03,33h0Z"/></clipPath></defs><g id="Vertical_Black_"><path id="Path_141" class="cls-5" d="m23.87,505.04H.95l22.92-198.28,75.55,136.75,75.52-136.75,22.92,198.28h-22.92l-14.02-127.6-61.5,110.14-61.52-110.14-14.04,127.6Z"/><path id="Path_142" class="cls-5" d="m253.17,483.45h84.95v21.71h-107.9v-188.98h107.9v21.71h-84.95v53.97h79.65v21.71h-79.65v69.88Z"/><path id="Path_143" class="cls-5" d="m359.71,316.18h120.03v21.71h-48.57v167.27h-22.92v-167.39h-48.54v-21.59Z"/><path id="Path_144" class="cls-5" d="m526.95,483.45h85.01v21.71h-107.94v-188.98h107.94v21.71h-84.98v53.97h79.59v21.71h-79.63v69.88Z"/><path id="Path_145" class="cls-5" d="m648.59,372.29c4.62-11.49,11.5-21.94,20.22-30.74,8.61-8.9,19-15.89,30.49-20.5,24.35-10.11,51.73-10.11,76.08,0,11.49,4.62,21.88,11.61,30.49,20.5,8.72,8.79,15.6,19.24,20.22,30.74,9.35,24.68,9.35,51.93,0,76.61-4.61,11.51-11.49,21.97-20.22,30.77-8.62,8.89-19,15.88-30.49,20.51-24.36,10.05-51.72,10.05-76.08,0-11.49-4.62-21.87-11.61-30.49-20.5-8.73-8.8-15.61-19.26-20.22-30.77-9.35-24.68-9.35-51.93,0-76.61h0Zm26.42,76.36c19.03,34.42,62.36,46.9,96.78,27.87,11.73-6.48,21.39-16.14,27.87-27.87,12.18-23.9,12.18-52.18,0-76.08-19.03-34.42-62.36-46.9-96.78-27.87-11.73,6.48-21.39,16.14-27.87,27.87-12.18,23.9-12.18,52.18,0,76.08Z"/><path id="Path_146" class="cls-5" d="m888.4,505.04h-22.95v-188.86h51.27c11.37-.26,22.64,2.14,32.91,7.01,9.25,4.18,17.11,10.93,22.64,19.45,6,8.9,9.07,19.45,8.78,30.18.36,13.04-4.16,25.74-12.69,35.6-8.37,9.32-12.97,15.51-26.18,18.89l56.39,77.53h-28.32l-52.73-75.54h-29.12v75.74Zm28.32-95.78c10.7.45,21.21-2.9,29.68-9.46,7.81-6.45,11.57-15.35,11.57-26.95s-3.75-20.5-11.57-26.98c-8.49-6.49-19-9.79-29.68-9.32h-28.32v72.83l28.32-.11Z"/><path id="Path_147" class="cls-5" d="m90.65,695.01c7.79,7.55,18.28,11.64,29.12,11.35,10.79,0,18.89-2.7,24.29-8.1,5.63-6.05,8.55-14.14,8.1-22.39.34-7.27-2.08-14.4-6.76-19.97-4.62-5.42-10.31-9.82-16.72-12.92-6.66-3.57-13.61-6.54-20.78-8.9-4.56-1.61-9.71-3.78-15.35-5.96-5.47-2.57-10.67-5.69-15.51-9.32-5.02-3.96-9.15-8.92-12.13-14.58-3.2-6.78-4.77-14.22-4.59-21.71-.18-8.92,2.15-17.71,6.73-25.37,4.67-7.25,11.19-13.12,18.89-17,9.11-4.25,19.07-6.37,29.12-6.2,9.1-.14,18.13,1.71,26.44,5.41,7.41,3.56,13.95,8.72,19.14,15.11,5.18,6,9.46,12.73,12.69,19.97l-18.61,12.41c-2.8-5.37-6.15-10.43-9.99-15.11-3.71-4.62-8.3-8.47-13.49-11.32-5.66-3.22-12.1-4.81-18.61-4.59-9.32,0-16.72,2.42-21.31,7.29-4.85,5.38-7.37,12.46-7.01,19.69-.14,5.75,2.1,11.31,6.2,15.35,4.65,4.75,10.14,8.6,16.19,11.35,6.73,3.1,13.74,6.2,21.31,9.32,5.29,2.05,10.47,4.39,15.51,7.01,5.64,2.94,10.9,6.57,15.66,10.79,5.14,4.14,9.27,9.39,12.09,15.35,3.21,6.92,4.78,14.49,4.59,22.11.23,9.93-2.29,19.73-7.29,28.32-4.67,8.1-11.6,14.66-19.94,18.89-9.36,4.71-19.74,7.03-30.21,6.73-14.96.17-29.5-4.98-41-14.55-11.94-9.97-21.06-22.9-26.44-37.5l19.41-11.6c4.7,11.43,11.58,21.84,20.25,30.65v-.04Z"/><path id="Path_148" class="cls-5" d="m190.71,536.4h120.03v21.71h-48.54v167.27h-22.92v-167.39h-48.57v-21.59Z"/><path id="Path_149" class="cls-5" d="m356.61,536.4v126.81c0,12.96,3.5,23.48,10.52,31.3,7.01,7.82,17.28,11.88,30.77,11.88s23.74-4.06,30.74-11.88,10.52-18.33,10.52-31.3v-126.81h22.9v126.81c.21,11.63-2.48,23.13-7.81,33.47-5.28,9.5-13.02,17.42-22.39,22.92-10.38,5.88-22.19,8.77-34.12,8.34-11.8.36-23.47-2.53-33.74-8.34-9.5-5.42-17.34-13.35-22.64-22.92-5.33-10.34-8.02-21.84-7.81-33.47v-126.81h23.08Z"/><path id="Path_150" class="cls-5" d="m503.87,725.25v-188.85h56.67c17.02-.26,33.82,3.83,48.82,11.88,14.08,7.65,25.68,19.17,33.44,33.19,16.21,31.01,16.21,67.99,0,99-7.85,13.88-19.43,25.28-33.44,32.91-15,8.05-31.8,12.14-48.82,11.88h-56.67Zm56.67-22.95c12.97.33,25.8-2.74,37.22-8.9,10.6-5.61,19.39-14.12,25.34-24.53,11.87-23.97,11.87-52.11,0-76.08-5.95-10.42-14.74-18.93-25.34-24.53-11.42-6.16-24.25-9.23-37.22-8.9h-33.74v142.95h33.74Z"/><path id="Path_151" class="cls-5" d="m710.22,536.4v188.85h-22.92v-188.85h22.92Z"/><path id="Path_152" class="cls-5" d="m749.61,592.5c4.62-11.49,11.5-21.94,20.22-30.74,8.61-8.9,19-15.89,30.49-20.5,24.35-10.11,51.73-10.11,76.08,0,11.49,4.62,21.88,11.61,30.49,20.5,8.72,8.79,15.6,19.24,20.22,30.74,9.35,24.68,9.35,51.93,0,76.61-4.61,11.51-11.49,21.97-20.22,30.77-8.62,8.89-19,15.88-30.49,20.51-24.36,10.05-51.72,10.05-76.08,0-11.49-4.62-21.87-11.61-30.49-20.5-8.73-8.8-15.61-19.26-20.22-30.77-9.35-24.68-9.35-51.93,0-76.61h0Zm26.42,76.36c19.03,34.42,62.36,46.9,96.78,27.87,11.73-6.48,21.39-16.14,27.87-27.87,12.18-23.9,12.18-52.18,0-76.08-19.03-34.42-62.36-46.9-96.78-27.87-11.73,6.48-21.39,16.14-27.87,27.87-11.55,23.38-9.64,51.76,0,76.08h0Z"/><g class="cls-19"><g id="Group_41"><rect id="Rectangle_79" class="cls-1" x="695.52" y="236.29" width="378.58" height="226.41"/><path id="Path_153" class="cls-11" d="m732.92,355.02c-18.27,0-11.01-28.97-6.85-37.99,1.3-2.82,2.14-7.32,12.02-9.74,7.01-1.71,22.61-.99,28.16-4.16,7.87-4.49,12.33-13.22,11.35-22.24-.75-3.31,2.91,18.42.71,25.87-2.73,9.32,5.55,19.35,12.41,18.61,9.15-1.18,19.04-14.92,11.54-34.64-5.27-13.82,9.83-14.33,19.04-18.61s37.93-24.1,36.54-22.7-21.71,30.02-21.31,38.16c.4,8.14,14.79,9.92,26.52,1.15,10.02-7.48,17.65-25.34,17.65-25.34,0,0,2.3,50.15-26.95,47.58-28.63-2.54-21.33,26.58-21.33,26.58,8.53-9.06,23.42-1.67,31.17-.99,14.39,1.27,14.92-22.7,14.92-22.7,0,0,9.86,31.79-19.32,41.56-14.36,4.81-5.74,15.51,3.1,15.82,8,.19,10.22-11.35,10.22-11.35,0,0,1.12,18.61-5.27,21.71-5.83,2.73-29.62,20.69-27.29,41.03.84,7.32-9.09,12.41-19.76,10.08-3.1-.71-14.76,8.96-16.83-4.78-3.5-23.17,3.72-25.99,0-33.5-2.17-4.34-11.04-5.65-15.29-11.79-5.71-8.25-7.21-21.4-12.41-26.18-14.81-13.5-11.18-1.44-42.72-1.44Z"/><path id="Path_154" class="cls-2" d="m643.35,417.17c.63.72.82,1.73.5,2.64l-.5-2.64Z"/><path id="Path_155" class="cls-9" d="m644.43,423.1c.62.45.78,1.31.37,1.95l-.37-1.95Z"/><path id="Path_156" class="cls-15" d="m642.97,413.52l.22,1.3c0,.19,0,.22-.25,0l-.25-1.3s.28-.13.28,0Z"/><path id="Path_157" class="cls-14" d="m642.98,414.88h.25c0,.37.3.75,0,1.05l-.25-1.05Z"/><path id="Path_158" class="cls-8" d="m645.05,426.35c.37,0,.4.34.4.62s-.16,0-.28,0l-.12-.62Z"/><path id="Path_159" class="cls-6" d="m642.97,413.51h-.28v-.65c.28.06.28.27.28.65Z"/><path id="Path_160" class="cls-3" d="m645.18,427.03h.28c0,.28.22.56-.16.71l-.12-.71Z"/><path id="Path_161" class="cls-4" d="m919.02,261.94c-.4-.4-.87,0-1.3,0,.31-.44.87-.65,1.39-.53.69.12.06.34-.09.53Z"/><circle id="Ellipse_54" class="cls-13" cx="729.97" cy="417.7" r="99.37"/><ellipse id="Ellipse_55" class="cls-12" cx="740.03" cy="332.59" rx="21.61" ry="35.54" transform="translate(323.14 1028.62) rotate(-83.28)"/><path id="Path_162" class="cls-10" d="m764.12,343.57c-5.9,2.8-12.3,4.4-18.83,4.71-6.88.42-13.76-.7-20.16-3.26-4.68-1.89-8.68-5.14-11.51-9.32-2.23-3.25-3.59-7.02-3.94-10.95,1.58,4.21,4.37,7.85,8.03,10.45.72.07,1.4.35,1.95.81,4.48,2.58,9.42,4.26,14.55,4.93,7.51,1.24,15.17,1.24,22.67,0,2.31-.24,4.6-.64,6.85-1.18,4.84-1.36,9.3-3.83,13.03-7.21-3.37,4.54-7.69,8.3-12.65,11.01h0Z"/><ellipse id="Ellipse_56" class="cls-5" cx="740.9" cy="325.29" rx="10.64" ry="24.31" transform="translate(331.15 1023.04) rotate(-83.28)"/><ellipse id="Ellipse_57" class="cls-12" cx="808.47" cy="366.79" rx="10.82" ry="29.55" transform="translate(-68.27 506.41) rotate(-33.45)"/><path id="Path_163" class="cls-10" d="m813.56,388.98c-4.17-3.05-7.93-6.64-11.17-10.67-3.62-4.38-6.64-9.22-8.99-14.39-1.6-3.4-2.42-7.12-2.39-10.89-.06-2.3.62-4.57,1.95-6.45-.76,3.51-.69,7.15.19,10.64,2.73,8.56,8.19,16.69,18.61,27.2.93,1.13,1.97,2.17,3.1,3.1,2.73,2.53,5.88,4.55,9.32,5.99-2.9-.52-5.68-1.57-8.19-3.1-.97-.46-1.65-1.24-2.43-1.42Z"/><ellipse id="Ellipse_58" class="cls-5" cx="811.54" cy="364.78" rx="5.3" ry="20.21" transform="translate(-66.65 507.77) rotate(-33.45)"/><ellipse id="Ellipse_59" class="cls-12" cx="816.13" cy="432.62" rx="31.45" ry="13.24" transform="translate(164.83 1087.62) rotate(-73.09)"/><path id="Path_164" class="cls-10" d="m799.05,445.4c-.17-5.92.29-11.85,1.36-17.68,1-5.81,2.78-11.47,5.27-16.81,1.34-3.15,3.6-5.82,6.48-7.66,1.69-1.14,3.84-1.37,5.74-.62-2.57.55-4.8,2.12-6.2,4.34-.09.56-.33,1.08-.71,1.5-2.18,3.58-3.86,7.44-4.99,11.48-2.02,6.47-3.45,13.11-4.28,19.83-.04.48-.17.96-.37,1.39-.25,1.62-.37,3.26-.37,4.9-.28,4.44,0,8.91.87,13.28-1.26-3.47-2.08-7.09-2.42-10.76-.03-1.07-.15-2.14-.37-3.19Z"/><ellipse id="Ellipse_60" class="cls-5" cx="821.25" cy="425.69" rx="8.99" ry="19.82" transform="translate(-8.88 17.58) rotate(-1.22)"/><path id="Path_165" class="cls-17" d="m732.92,355.02c-18.27,0-11.01-28.97-6.85-37.99,1.3-2.82,2.14-7.32,12.02-9.74,7.01-1.71,22.61-.99,28.16-4.16,7.87-4.49,12.33-13.22,11.35-22.24-.75-3.31,2.91,18.42.71,25.87-2.73,9.32,5.55,19.35,12.41,18.61,9.15-1.18,19.04-14.92,11.54-34.64-5.27-13.82,9.83-14.33,19.04-18.61s37.93-24.1,36.54-22.7-21.71,30.02-21.31,38.16c.4,8.14,14.79,9.92,26.52,1.15,10.02-7.48,17.65-25.34,17.65-25.34,0,0,2.3,50.15-26.95,47.58-28.63-2.54-21.33,26.58-21.33,26.58,8.53-9.06,23.42-1.67,31.17-.99,14.39,1.27,14.92-22.7,14.92-22.7,0,0,9.86,31.79-19.32,41.56-14.36,4.81-5.74,15.51,3.1,15.82,8,.19,10.22-11.35,10.22-11.35,0,0,1.12,18.61-5.27,21.71-5.83,2.73-29.62,20.69-27.29,41.03.84,7.32-9.09,12.41-19.76,10.08-3.1-.71-14.76,8.96-16.83-4.78-3.5-23.17,3.72-25.99,0-33.5-2.17-4.34-11.04-5.65-15.29-11.79-5.71-8.25-7.21-21.4-12.41-26.18-14.81-13.5-11.18-1.44-42.72-1.44Z"/><circle id="Ellipse_61" class="cls-16" cx="747.78" cy="402.69" r="11.63"/><circle id="Ellipse_62" class="cls-16" cx="782.33" cy="403.9" r="5.37"/><circle id="Ellipse_63" class="cls-16" cx="773.99" cy="394.75" r="2.33"/><circle id="Ellipse_64" class="cls-16" cx="748.65" cy="370.99" r="6.05"/><circle id="Ellipse_65" class="cls-16" cx="762.63" cy="364.1" r="2.42"/></g></g><path id="Path_167" class="cls-18" d="m943.27,429.33h-28.6c-1.86,0-15.88-.4-17.71-.4-17.21,0-25.71-9.32-29.78-19.2l-5.43-13.34c-6.26-5.49-15.52-5.78-22.11-.71l-9.32,17.13c-5.51,10.4-16.53,16.68-28.29,16.13-1.86,0-19.01.4-20.87.4h-22.54c-18.25.04-33.09-14.73-33.13-32.98,0,0,0-.01,0-.02v-59.59c.03-18.27,14.86-33.05,33.13-33.03h184.54c18.27-.02,33.09,14.77,33.13,33.03v59.58c-.03,18.23-14.81,32.99-33.03,33h0Z"/></g></svg>