<svg width="120" height="100" viewBox="0 0 120 100" fill="none" xmlns="http://www.w3.org/2000/svg">
<path d="M43.7573 5.13821C37.0263 5.33351 30.6533 9.90998 28.1784 20.7173C31.1655 16.4632 36.6148 12.8461 41.633 15.8246C45.9628 18.393 45.9858 21.2566 44.2441 26.3652L42.9312 30.2174C37.7252 24.7688 26.6839 25.8735 25.4058 38.1678C28.8185 35.0833 41.1787 35.3638 37.4838 46.1939C37.4807 46.2014 37.4781 46.2089 37.4764 46.2182L26.4032 78.7C17.1679 78.792 7.90254 83.4415 5.06342 94.9813C7.6453 90.8801 26.5722 82.7953 43.7334 95.2128L54.5479 81.9741C53.8046 81.2381 47.9021 80.0246 43.4721 84.3473C41.1344 82.3762 38.1266 80.8413 34.8218 79.8713L40.5307 63.1146H61.5814L68.9969 85.3117C71.9372 94.1115 78.71 99.1081 82.9772 92.4607C82.9772 92.4607 94.71 74.9305 96.1038 72.897C97.4957 70.8684 94.718 70.544 94.3851 70.8624C83.0075 83.2722 79.3119 78.4239 77.349 72.5558L58.7507 16.879C57.0295 11.7298 53.8497 7.38497 48.4404 5.68049C46.8924 5.28167 45.319 5.09207 43.7656 5.13713L43.7573 5.13821ZM74.4958 25.1522V31.9696H76.7403L74.7599 37.3422H76.6743L81.2048 31.4457V25.1521L74.4958 25.1522ZM100.761 25.9977C97.1369 26.1787 93.6852 27.6684 91.5855 30.615C84.9806 39.8701 92.4992 44.8742 101.03 47.0012C104.512 47.8667 108.984 49.8714 106.766 53.2802C104.895 56.151 97.6712 54.7961 92.2213 49.8715L88.5294 54.8713C91.839 58.7059 104.762 66.7305 112.855 56.9545C119.561 48.8409 110.934 41.6799 105.549 40.6145C100.162 39.551 95.6679 38.4664 97.0262 34.5523C98.17 31.2495 106.156 31.5699 108.916 35.7194L113.102 31.4651C110.369 27.6951 105.422 25.7649 100.761 25.9977ZM51.1581 31.9405L58.603 54.2175H43.5662L51.1581 31.9405Z" fill="white"/>
</svg>
